<svg xmlns="http://www.w3.org/2000/svg" version="1.1" xmlns:xlink="http://www.w3.org/1999/xlink" width="2000" height="1500" viewBox="0 0 2000 1500"><rect width="2000" height="1500" x="0" y="0" id="background" stroke="transparent" fill="#000000"></rect><svg xml:space="preserve" width="1500" height="1125" data-version="2" data-id="lg_NSo9gRy3JrfEwe91tw" viewBox="0 0 560 560" x="250" y="187.5"><rect width="100%" height="100%" fill="transparent"></rect><rect width="448.284" height="448.284" x="-224.142" y="-224.142" fill="none" stroke="#fff" stroke-width="22.5" paint-order="stroke" rx="0" ry="0" transform="translate(280 280)scale(1.19)"></rect><rect width="240" height="379.68" x="-120" y="-189.84" fill="none" rx="0" ry="0" transform="translate(280.5 280.14)"></rect><path fill="#fff" stroke="#fff" stroke-width="7.32" d="M239.3 388.85h-48.72v-235.2h114.91q23.86 0 42.17 9.24t28.73 25.7q10.41 16.47 10.41 37.97 0 22.51-12.6 39.65t-33.43 25.54l52.08 97.1h-54.43l-46.03-90.05H239.3zm0-193.2v63.17h61.82q16.47 0 26.38-8.74 9.91-8.73 9.91-22.85 0-14.11-9.91-22.84-9.91-8.74-26.38-8.74z" paint-order="stroke"></path></svg></svg>